<svg xmlns="http://www.w3.org/2000/svg" viewBox="0 0 100 100" style="fill: #c4730c">
  <title>Wise Cookie</title>
  <path d="M44.42,5.4A46.06,46.06,0,0,0,3.81,51.05V54a46.19,46.19,0,0,0,92.38,0V51.05a45.67,45.67,0,0,0-6-22.55l0,0-.36.07-.33.13c-8,2.89-17.79,2.31-27.23-1a7.91,7.91,0,0,1-1.5-.77c-.32-.15-.67-.33-1-.53A18.21,18.21,0,0,1,54.48,23a37,37,0,0,1-6.08-8.15A31.39,31.39,0,0,1,44.42,5.4ZM31.15,15.89A2.63,2.63,0,0,1,33.39,18a1.91,1.91,0,0,1,.2,1.11,2.77,2.77,0,0,1-3.43,2.34,2.88,2.88,0,0,1-2-1.62,2.41,2.41,0,0,1-.15-.33,2.93,2.93,0,0,1-.1-1.48A2.78,2.78,0,0,1,31.15,15.89ZM20.71,28a2.33,2.33,0,0,1,.59,0,2.06,2.06,0,0,1,1.33,3.34l-.1.08a1.9,1.9,0,0,1-1.17.81,1.34,1.34,0,0,1-.28,0,2,2,0,0,1-2.27-1.8,2,2,0,0,1,.4-1.5A2.17,2.17,0,0,1,20.71,28Zm59.9,7.75a2.25,2.25,0,0,1,.76.16,2.61,2.61,0,0,1,1.29,2.32,1.83,1.83,0,0,1-.17.65,2.69,2.69,0,0,1-.34.57,2.45,2.45,0,0,1-.57.54,1.92,1.92,0,0,1-2.22,0,1.86,1.86,0,0,1-.59-3,.47.47,0,0,0,0-.09A2,2,0,0,1,80.61,35.71Zm-19.75.4a3.54,3.54,0,0,1,1.81.29,3.79,3.79,0,0,1,2,1.39,4.33,4.33,0,0,1,.13,5.6,4.15,4.15,0,0,1-6.58,0A4,4,0,0,1,57,41.2a4.32,4.32,0,0,1,2.07-4.49c.12-.06.26-.09.38-.14A3.58,3.58,0,0,1,60.86,36.11Zm-16.48,3.2a2.23,2.23,0,0,1,2,2.37A2.16,2.16,0,0,1,45.47,44l0,0s-.1.06-.14.1l-.08.06a2,2,0,0,1-1.55.5,2.15,2.15,0,0,1-.64-.16,2.17,2.17,0,0,1-1.36-1.32l0-.13c0-.06-.07-.1-.09-.16a2,2,0,0,1,.1-1.49,2.51,2.51,0,0,1,.37-1A2.42,2.42,0,0,1,44.38,39.31ZM22.21,44.42A3.87,3.87,0,0,1,25,46.06a4.51,4.51,0,0,1-.73,6,3.35,3.35,0,0,1-3.18.83,3.66,3.66,0,0,1-3-2.21,3.89,3.89,0,0,1,.82-5.09A4.36,4.36,0,0,1,22.21,44.42Zm63.28,3.63a4.54,4.54,0,0,1,3.26,1.77,4.36,4.36,0,0,1,.78,1.59,4.06,4.06,0,0,1,.37,3.06,4.89,4.89,0,0,1-2.23,2.82,5,5,0,0,1-7-1.59A4.92,4.92,0,0,1,82,49.13,5.17,5.17,0,0,1,85.49,48.05ZM66,54.37a2.11,2.11,0,0,1,1.71.43,2.49,2.49,0,0,1,.67.81,2.41,2.41,0,0,1,.22.56v0a2.39,2.39,0,0,1,0,1.3,2.1,2.1,0,0,1-.59,1,1.89,1.89,0,0,1-1.43.65,1.1,1.1,0,0,0,.24,0l-.16,0a1.63,1.63,0,0,1-.85-.06,1,1,0,0,1-.17,0,2,2,0,0,1-1.45-1.35,2.57,2.57,0,0,1-.12-.81,2.82,2.82,0,0,1,.14-.69,1.51,1.51,0,0,1,.07-.37s0,0,0-.07a3.59,3.59,0,0,1,.17-.34,1.09,1.09,0,0,1,.08-.15A2,2,0,0,1,66,54.37ZM41.67,56.26a2,2,0,0,1,1.46.92,2.33,2.33,0,0,1,.39.5,2.19,2.19,0,0,1-1.05,3.08,2.42,2.42,0,0,1-3.19-1.14,2.29,2.29,0,0,1,1.55-3.32A2.39,2.39,0,0,1,41.67,56.26ZM16.91,63.68a3.84,3.84,0,0,1,3.69,2.4,3.62,3.62,0,0,1,.55,1.53,4.4,4.4,0,0,1-3.95,4.9,4.3,4.3,0,0,1-5-3.84,4.38,4.38,0,0,1,1.88-4,3.38,3.38,0,0,1,2-.87,1.52,1.52,0,0,1,.21,0h0A3.92,3.92,0,0,1,16.91,63.68ZM53,68.52a1.45,1.45,0,0,1,.36.08,2.3,2.3,0,0,1,.28.06,1.92,1.92,0,0,1,.41.19,1.85,1.85,0,0,1,.44.34l.13.15a2.38,2.38,0,0,1,.36.71s0,0,0,0v0a2.67,2.67,0,0,1,.09.26,1,1,0,0,0,0,.17h0c0,.12,0,.25,0,.38s0,.22,0,.34a1.84,1.84,0,0,1-.36.95,2,2,0,0,1-1.71.83l-.16,0A2.15,2.15,0,0,1,51.05,72a2,2,0,0,1-.17-1.85,2,2,0,0,1,.13-.29l0,0a2.07,2.07,0,0,1,.38-.5,1.7,1.7,0,0,1,.24-.22.18.18,0,0,0,.07,0A1.73,1.73,0,0,1,53,68.52ZM68.3,70.31a2.88,2.88,0,0,1,2.07.72,4.38,4.38,0,0,1,.62.35,2.91,2.91,0,0,1,1.14,3,4.26,4.26,0,0,1-1,2s-.08.11-.13.16l-.06.08a3.68,3.68,0,0,1-.77.56l-.17.08a3.22,3.22,0,0,1-.83.27,2.76,2.76,0,0,1-3.53-1,3.51,3.51,0,0,1-.48-1.75,3,3,0,0,1,1.26-3.51,3.52,3.52,0,0,1,.8-.64A3,3,0,0,1,68.3,70.31ZM34.58,74.17a3.56,3.56,0,0,1,1.48.3,2.62,2.62,0,0,1,1.08.89c1.54,1.59,1.17,4.83-1,5.73l-.2.06a2.63,2.63,0,0,1-1.33.27,3.05,3.05,0,0,1-.9-.08,2.62,2.62,0,0,1-1.45-.71A3.74,3.74,0,0,1,31,77.92a1.76,1.76,0,0,1,0-.23,5.24,5.24,0,0,1,0-.56,2,2,0,0,1,.35-.84,3.06,3.06,0,0,1,.6-.79,3.44,3.44,0,0,1,.83-.53A2.76,2.76,0,0,1,34.58,74.17ZM55.4,80.48a6.75,6.75,0,0,1,5.39,9.78,7.19,7.19,0,0,1-4.68,3.45,5,5,0,0,1-3.44.19,3.84,3.84,0,0,1-1-.61,4.48,4.48,0,0,1-.43-.27L51,92.83a4,4,0,0,1-.9-.84s0,0-.05,0a6.9,6.9,0,0,1-1.94-4.88A7.22,7.22,0,0,1,55.4,80.48Z" />
  <path d="M82,15.65h0a2.12,2.12,0,0,1,2.1,2.15h0A2.13,2.13,0,0,1,82,20h0a2.13,2.13,0,0,1-2.1-2.16h0A2.12,2.12,0,0,1,82,15.65Z" />
  <path d="M61.63.42h0a5.19,5.19,0,0,1,5.19,5.19v0a5.19,5.19,0,0,1-5.19,5.19h0a5.19,5.19,0,0,1-5.2-5.19v0A5.19,5.19,0,0,1,61.63.42Z" />
  <path d="M67.05,18.35h0a1.87,1.87,0,0,1,1.87,1.87v0a1.87,1.87,0,0,1-1.87,1.87h0a1.87,1.87,0,0,1-1.86-1.87v0A1.87,1.87,0,0,1,67.05,18.35Z" />
  <path d="M76,8.66h0a2.54,2.54,0,0,1,2.53,2.54v.1A2.54,2.54,0,0,1,76,13.84h0a2.54,2.54,0,0,1-2.54-2.54v-.1A2.54,2.54,0,0,1,76,8.66Z" />
  <path d="M57.81,18.4h0a1.28,1.28,0,0,1,1.28,1.28v.05A1.28,1.28,0,0,1,57.81,21h0a1.28,1.28,0,0,1-1.28-1.28v-.05A1.28,1.28,0,0,1,57.81,18.4Z" />
  <path d="M79.24,0h0a1.09,1.09,0,0,1,1.09,1.09v.24a1.09,1.09,0,0,1-1.09,1.09h0a1.09,1.09,0,0,1-1.1-1.09V1.09A1.09,1.09,0,0,1,79.24,0Z" />
</svg>
