<svg xmlns="http://www.w3.org/2000/svg" viewBox="0 0 100 100">
  <title>logo</title>
  <g>
    <g>
      <polygon points="26.78 16.37 26.78 32.74 46.42 32.74 46.42 0 26.78 16.37" style="fill: #00b4e5"/>
      <polygon points="46.42 32.67 46.42 49.04 26.78 49.04 26.78 16.3 46.42 32.67" style="fill: #00d8ff"/>
    </g>
    <g>
      <polygon points="76.47 29.39 60.1 29.39 60.1 49.04 92.84 49.04 76.47 29.39" style="fill: #ff9e56"/>
      <polygon points="60.17 49.04 43.8 49.04 43.8 29.39 76.54 29.39 60.17 49.04" style="fill: #ffd34b"/>
      <g>
        <polygon points="66.06 79.09 66.06 62.72 46.42 62.72 46.42 95.46 66.06 79.09" style="fill: #d5284b"/>
        <polygon points="46.42 62.79 46.42 46.42 66.06 46.42 66.06 79.16 46.42 62.79" style="fill: #ff4362"/>
      </g>
    </g>
    <g>
      <polygon points="16.37 68.68 32.74 68.68 32.74 49.04 0 49.04 16.37 68.68" style="fill: #2dd58f"/>
      <polygon points="32.67 49.04 49.04 49.04 49.04 68.68 16.3 68.68 32.67 49.04" style="fill: #b6ed60"/>
    </g>
  </g>
  <g>
    <circle cx="47.07" cy="48.38" r="4.58" style="fill: #b789a1"/>
    <path d="M56.32,49.81a4.57,4.57,0,0,1-4.58,4.58,4.53,4.53,0,0,1-3.45-1.58,4.29,4.29,0,0,0,1,.12,4.58,4.58,0,0,0,4.58-4.59,4.47,4.47,0,0,0-1.14-3A4.56,4.56,0,0,1,56.32,49.81Z" transform="translate(-4.66 -1.48)" style="fill: #985e7c"/>
    <circle cx="44.97" cy="47.34" r="0.8" style="fill: #fff"/>
  </g>
</svg>
